<svg width="1024" height="1024" viewBox="0 0 1024 1024" fill="none" xmlns="http://www.w3.org/2000/svg">
<path d="M512 632V752H392V632H512Z" fill="#66C7F1"/>
<path d="M392 512V632H272V512H392Z" fill="#F184D5"/>
<path d="M392 632V752H272V632H392Z" fill="#ACA6E3"/>
<path d="M272 632V752H152V632H272Z" fill="#66C7F1"/>
<path d="M392 752V872H272V752H392Z" fill="#F184D5"/>
<path d="M512 272V392H392V272H512Z" fill="#F184D5"/>
<path d="M872 272V392H752V272H872Z" fill="#66C7F1"/>
<path d="M872 632V752H752V632H872Z" fill="#F184D5"/>
<path d="M392 152V272H272V152H392Z" fill="#66C7F1"/>
<path d="M752 152V272H632V152H752Z" fill="#F184D5"/>
<path d="M752 512V632H632V512H752Z" fill="#66C7F1"/>
<path d="M392 272V392H272V272H392Z" fill="#ACA6E3"/>
<path d="M752 272V392H632V272H752Z" fill="#ACA6E3"/>
<path d="M752 632V752H632V632H752Z" fill="#ACA6E3"/>
<path d="M272 272V392H152V272H272Z" fill="#F184D5"/>
<path d="M632 272V392H512V272H632Z" fill="#66C7F1"/>
<path d="M632 632V752H512V632H632Z" fill="#F184D5"/>
<path d="M392 392V512H272V392H392Z" fill="#66C7F1"/>
<path d="M752 392V512H632V392H752Z" fill="#F184D5"/>
<path d="M752 752V872H632V752H752Z" fill="#66C7F1"/>
</svg>
